<svg width="24" height="25" viewBox="0 0 24 25" fill="none" xmlns="http://www.w3.org/2000/svg">
<g clip-path="url(#clip0_2_476)">
<path d="M5.74005 7.94713C6.81613 7.94713 7.68847 7.07479 7.68847 5.99871C7.68847 4.92263 6.81613 4.05029 5.74005 4.05029C4.66396 4.05029 3.79163 4.92263 3.79163 5.99871C3.79163 7.07479 4.66396 7.94713 5.74005 7.94713Z" fill="#6E61FF"/>
<path d="M9.52831 9.42364V20.2335H12.8846V14.8878C12.8846 13.4772 13.15 12.1112 14.8989 12.1112C16.6238 12.1112 16.6452 13.7239 16.6452 14.9768V20.2344H20.0033V14.3063C20.0033 11.3944 19.3764 9.15649 15.9729 9.15649C14.3388 9.15649 13.2435 10.0532 12.7956 10.9019H12.7501V9.42364H9.52831ZM4.05884 9.42364H7.42049V20.2335H4.05884V9.42364Z" fill="#6E61FF"/>
</g>
<defs>
<clipPath id="clip0_2_476">
<rect width="24" height="24" fill="white" transform="translate(0 0.234375)"/>
</clipPath>
</defs>
</svg>
