<svg width="90" height="75" viewBox="0 0 90 75" fill="none" xmlns="http://www.w3.org/2000/svg">
    <g clip-path="url(#clip0_1_50349)">
        <path
            d="M18.8024 74.8886H0.63949C0.555098 74.8886 0.474163 74.8552 0.414488 74.7955C0.354814 74.7357 0.321289 74.6548 0.321289 74.5705V56.4139C0.321289 56.3295 0.354814 56.2486 0.414488 56.1889C0.474163 56.1293 0.555098 56.0957 0.63949 56.0957H18.8024C18.8868 56.0957 18.9677 56.1293 19.0274 56.1889C19.087 56.2486 19.1206 56.3295 19.1206 56.4139V74.5705C19.1206 74.6548 19.087 74.7357 19.0274 74.7955C18.9677 74.8552 18.8868 74.8886 18.8024 74.8886ZM0.967234 74.2523H18.4842V56.7321H0.95769L0.967234 74.2523Z"
            fill="#29314D" />
        <path
            d="M20.7847 49.633C17.6537 49.633 15.0095 48.8184 12.1934 46.9888C12.1534 46.9627 12.1197 46.9281 12.095 46.8873C12.0701 46.8465 12.0548 46.8008 12.0501 46.7533C12.0458 46.7059 12.0521 46.6582 12.0686 46.6136C12.0851 46.5689 12.1115 46.5286 12.1456 46.4955L15.2226 43.479C15.2819 43.4202 15.3619 43.3871 15.4454 43.3867C15.5115 43.3882 15.5757 43.4092 15.6299 43.4472C17.1125 44.5054 18.9005 45.0496 20.7212 44.9969C21.6949 44.9969 22.834 44.6627 22.834 43.724C22.834 43.3867 22.6908 43.0176 21.6216 42.8394C21.1286 42.7796 20.6323 42.7499 20.1356 42.7503C19.8651 42.7503 19.5947 42.7503 19.337 42.7663C19.0792 42.7821 18.8661 42.7663 18.6592 42.7663C14.7995 42.7663 12.5879 41.1752 12.5879 38.356C12.5879 35.1739 15.6013 32.9307 19.9066 32.9307C22.9263 32.9307 25.7646 33.1311 27.3142 35.5813C27.3368 35.6168 27.3521 35.6565 27.3591 35.698C27.3663 35.7395 27.3651 35.7821 27.3556 35.823C27.3459 35.8646 27.3279 35.9038 27.3028 35.9382C27.2777 35.9726 27.2458 36.0016 27.2092 36.0236L23.795 38.0919C23.7458 38.121 23.6898 38.1364 23.6327 38.1364C23.5808 38.1369 23.5296 38.1246 23.4836 38.1008C23.4376 38.0769 23.3981 38.0422 23.3686 37.9995C22.9518 37.3919 22.4522 37.29 21.1634 37.29H19.9098C18.9074 37.29 17.7333 37.5764 17.7333 38.3878C17.7333 38.6137 17.7333 38.9924 18.9551 38.9924C19.2733 38.9924 19.5915 38.9924 19.9288 38.9924H20.7721C22.1308 38.9924 23.5658 39.0305 24.8196 39.4951C26.907 40.2652 28.1034 41.9102 28.1034 44.0072C28.1034 47.291 25.1282 49.598 20.8643 49.6171L20.7847 49.633Z"
            fill="#6E61FF" />
        <path
            d="M19.9381 33.2553C23.2632 33.2553 25.6944 33.5735 27.0785 35.7564L23.6324 37.8183C23.1073 37.0578 22.4169 36.9719 21.1599 36.9719H19.9094C18.5253 36.9719 17.4179 37.4333 17.4179 38.3879C17.4179 39.0625 17.9397 39.3107 18.9549 39.3107C19.273 39.3107 19.5912 39.3107 19.9254 39.3107H20.7717C22.1209 39.3107 23.5083 39.3489 24.7079 39.7912C26.7094 40.5294 27.7849 42.0695 27.7849 44.0073C27.7849 47.0844 24.9561 49.2831 20.8609 49.299H20.7845C18.0321 49.299 15.3751 48.6627 12.3808 46.7057L15.4578 43.6891C16.9947 44.7897 18.8504 45.3553 20.7399 45.2992C22.1241 45.2992 23.171 44.7169 23.171 43.7083C23.171 42.9987 22.6173 42.6613 21.6945 42.5054C21.1835 42.4437 20.6692 42.4128 20.1545 42.4132C19.6326 42.4132 19.1076 42.445 18.678 42.445C15.3242 42.445 12.9249 41.1531 12.9249 38.3529C12.9249 35.2759 15.9383 33.2458 19.9254 33.2458M19.9254 32.6094C15.4228 32.6094 12.2885 34.9705 12.2885 38.3529C12.2885 41.3122 14.675 43.0813 18.678 43.0813C18.888 43.0813 19.1203 43.0813 19.3653 43.0813C19.6104 43.0813 19.8903 43.0655 20.1545 43.0655C20.6383 43.0644 21.1219 43.0931 21.6023 43.1514C22.5346 43.3105 22.5346 43.5778 22.5346 43.7241C22.5346 44.3892 21.634 44.6788 20.7399 44.6788C18.983 44.7298 17.2575 44.2045 15.8269 43.1832C15.7194 43.1054 15.5904 43.0632 15.4578 43.0623C15.2908 43.063 15.1309 43.1292 15.0123 43.2468L11.9353 46.2602C11.8674 46.3267 11.8152 46.4076 11.7827 46.4968C11.7501 46.5862 11.738 46.6816 11.7471 46.7762C11.7563 46.8708 11.7864 46.9622 11.8356 47.0436C11.8847 47.125 11.9514 47.1943 12.0308 47.2467C14.8945 49.1144 17.5898 49.945 20.7845 49.945H20.8641C25.3188 49.9258 28.4213 47.4884 28.4213 44.0169C28.4213 41.7895 27.1485 40.0235 24.9211 39.2057C23.6197 38.7252 22.1528 38.6838 20.7654 38.6838H19.919C19.6549 38.6838 19.3048 38.6838 18.9643 38.6838H18.9421C18.0416 38.6838 18.0416 38.5025 18.0416 38.3974C18.0416 37.8597 18.9962 37.6179 19.8967 37.6179H21.1472C22.42 37.6179 22.7732 37.7229 23.0946 38.1874C23.1531 38.2728 23.2314 38.3426 23.3229 38.3908C23.4144 38.439 23.5163 38.4643 23.6197 38.4643C23.7317 38.4631 23.8415 38.4324 23.9379 38.3752L27.3935 36.3037C27.4667 36.2603 27.5305 36.2026 27.5811 36.1341C27.6316 36.0656 27.6679 35.9877 27.6878 35.9049C27.7076 35.8221 27.7107 35.7361 27.6968 35.6522C27.6829 35.5682 27.6522 35.4879 27.6067 35.4159C25.968 32.8321 23.0405 32.6189 19.9285 32.6189L19.9254 32.6094Z" />
        <path
            d="M36.0611 49.6324C32.6531 49.6324 30.849 47.3413 30.849 43.0075V37.0794H28.8602C28.7758 37.0794 28.6949 37.0458 28.6352 36.9862C28.5756 36.9265 28.542 36.8456 28.542 36.7612V33.7446C28.5413 33.667 28.5691 33.5917 28.6201 33.5331C28.6711 33.4745 28.7418 33.4365 28.8188 33.4264L30.849 33.1559V27.5906C30.849 27.5063 30.8825 27.4253 30.9422 27.3656C31.0018 27.3059 31.0828 27.2725 31.1672 27.2725H35.536C35.6204 27.2725 35.7014 27.3059 35.761 27.3656C35.8208 27.4253 35.8542 27.5063 35.8542 27.5906V32.9619H40.309C40.3935 32.9619 40.4744 32.9953 40.534 33.0551C40.5938 33.1147 40.6272 33.1957 40.6272 33.2801V36.758C40.6272 36.8424 40.5938 36.9234 40.534 36.983C40.4744 37.0427 40.3935 37.0762 40.309 37.0762H35.8542V43.2302C35.8542 44.2039 35.9051 44.7671 36.0388 44.9007L36.0738 44.9421C36.1234 45.0056 36.1866 45.0571 36.2588 45.0929C36.3308 45.1287 36.4102 45.1479 36.4907 45.1489C36.5627 45.1474 36.6332 45.1276 36.6955 45.0914C36.7578 45.0552 36.81 45.0039 36.847 44.9421C37.1652 44.4776 37.1652 43.5897 37.1652 42.3583C37.165 42.3023 37.1797 42.2471 37.2076 42.1985C37.2355 42.1499 37.2758 42.1095 37.3243 42.0815C37.3729 42.054 37.4277 42.0398 37.4834 42.0401C37.5392 42.0398 37.594 42.054 37.6425 42.0815L41.3655 44.2357C41.4201 44.2673 41.464 44.3144 41.4919 44.3711C41.5196 44.4278 41.5299 44.4914 41.5214 44.5539C41.1173 47.0168 39.485 49.6324 36.0611 49.6324Z"
            fill="#6E61FF" />
        <path
            d="M35.54 27.5915V33.281H40.313V36.7589H35.54V43.037C35.54 43.4984 35.4764 44.7903 35.8169 45.1275C35.8958 45.2321 35.9976 45.3172 36.1146 45.3762C36.2315 45.4353 36.3604 45.4667 36.4915 45.468C36.6144 45.4661 36.735 45.434 36.8426 45.3747C36.9502 45.3154 37.0416 45.2304 37.1088 45.1275C37.4779 44.5739 37.4779 43.6829 37.4779 42.3591L41.2009 44.5134C40.8604 46.604 39.4762 49.3118 36.0619 49.3118C32.2149 49.3118 31.168 46.2667 31.168 43.0052V36.7621H28.861V33.7455L31.168 33.4273V27.5915H35.54ZM35.54 26.9551H31.168C30.9992 26.9551 30.8374 27.0221 30.718 27.1415C30.5987 27.2608 30.5316 27.4227 30.5316 27.5915V32.88L28.7783 33.1123C28.6242 33.1325 28.4829 33.2083 28.3809 33.3256C28.2789 33.4428 28.2233 33.5933 28.2246 33.7487V36.7652C28.2246 36.934 28.2917 37.0958 28.411 37.2152C28.5304 37.3346 28.6923 37.4016 28.861 37.4016H30.5316V43.0115C30.5316 47.4886 32.4948 49.9547 36.0619 49.9547C39.6289 49.9547 41.4108 47.199 41.8277 44.6216C41.8474 44.4934 41.8276 44.3622 41.7708 44.2457C41.7139 44.129 41.6227 44.0326 41.5095 43.9693L37.7866 41.8151C37.6899 41.759 37.5801 41.7293 37.4684 41.7291C37.2995 41.7291 37.1377 41.7962 37.0184 41.9155C36.899 42.0349 36.8319 42.1968 36.8319 42.3655C36.8319 43.5302 36.832 44.3765 36.5742 44.7711C36.5265 44.838 36.4947 44.838 36.4819 44.838C36.4218 44.8337 36.3652 44.8077 36.3229 44.7648L36.2783 44.7075C36.1923 44.542 36.1542 44.0488 36.1638 43.2406C36.1638 43.1643 36.1638 43.0974 36.1638 43.0433V37.3985H40.3004C40.4691 37.3985 40.631 37.3314 40.7504 37.2121C40.8697 37.0927 40.9368 36.9308 40.9368 36.7621V33.2841C40.9368 33.1153 40.8697 32.9535 40.7504 32.8341C40.631 32.7148 40.4691 32.6477 40.3004 32.6477H36.1638V27.5915C36.1638 27.4227 36.0967 27.2608 35.9774 27.1415C35.8579 27.0221 35.6961 26.9551 35.5274 26.9551H35.54Z" />
        <path
            d="M49.4766 49.6968C45.55 49.6968 42.9121 47.603 42.9121 44.4847C42.9121 41.7577 45.0535 40.0966 47.4083 39.6639L43.7171 37.5606C43.6766 37.5376 43.6418 37.506 43.6148 37.4682C43.5879 37.4302 43.5696 37.3868 43.5612 37.341C43.5535 37.2956 43.5558 37.249 43.5679 37.2044C43.58 37.16 43.6015 37.1187 43.6312 37.0833L43.784 36.8987C45.5404 34.299 48.0733 32.9658 51.2903 32.9658C55.6147 32.9658 58.4084 35.1932 58.4084 38.6075V44.8538C58.4084 46.2189 58.4499 47.6381 58.9367 48.7231L59.1499 49.1813C59.1744 49.2316 59.1854 49.2875 59.1815 49.3434C59.1775 49.3993 59.159 49.4532 59.1276 49.4995C59.0988 49.5443 59.0593 49.5812 59.0126 49.6067C58.966 49.6323 58.9135 49.6458 58.8603 49.6459H55.2901C55.2235 49.6469 55.1586 49.6256 55.1055 49.5854C54.4745 49.1142 54.025 48.4399 53.8328 47.6762L51.8535 49.63C51.7943 49.6888 51.7143 49.7219 51.6308 49.7222L49.4766 49.6968ZM49.9666 43.2946C48.1592 43.2946 47.9174 43.8959 47.9174 44.4847C47.9174 45.366 48.7415 45.8911 50.1225 45.8911C52.0317 45.8911 53.0054 44.9365 53.3459 42.7091C52.2958 43.2914 51.1185 43.2914 50.2435 43.2914L49.9666 43.2946ZM48.646 39.5525C49.2602 39.5525 49.8552 39.6066 50.428 39.6607C51.0008 39.7148 51.5671 39.7658 52.1527 39.7658C52.9195 39.7658 53.4254 39.3267 53.4254 38.6712C53.4254 37.8374 52.2194 37.5415 51.198 37.5415C49.2888 37.5415 48.2229 38.6043 47.8983 39.5144C47.8885 39.5444 47.8735 39.5725 47.8538 39.5971C48.1168 39.568 48.3813 39.5531 48.646 39.5525Z"
            fill="#6E61FF" />
        <path
            d="M51.2911 33.2841C55.5072 33.2841 58.0909 35.4702 58.0909 38.6076V44.8539C58.0909 46.1775 58.1228 47.6859 58.6446 48.8536L58.861 49.3151H55.2908C54.9641 49.0681 54.6897 48.7587 54.4837 48.4047C54.2778 48.0507 54.1444 47.6592 54.0912 47.2531H53.773L51.6188 49.3786H49.4773C45.6303 49.3786 43.231 47.3454 43.231 44.4848C43.231 41.5 45.9389 39.8708 48.6404 39.8708C49.84 39.8708 50.9474 40.0841 52.1406 40.0841C53.1271 40.0841 53.7317 39.4699 53.7317 38.6713C53.7317 37.6848 52.5606 37.2234 51.186 37.2234C48.9395 37.2234 47.8958 38.5471 47.5872 39.4094L43.8642 37.287L44.0169 37.0993C45.4934 34.9165 47.8036 33.2809 51.2783 33.2809M50.2314 42.9733H49.9546C48.51 42.9733 47.5872 43.3424 47.5872 44.4816C47.5872 45.5284 48.51 46.2062 50.1105 46.2062C52.6561 46.2062 53.4644 44.5452 53.7094 42.2987H53.3912C52.4015 42.9351 51.2815 42.9733 50.2092 42.9733M51.256 32.6445C47.9849 32.6445 45.2961 34.051 43.4855 36.7143L43.3519 36.8766C43.2934 36.948 43.2513 37.0314 43.2282 37.1208C43.2051 37.2102 43.2019 37.3035 43.2184 37.3944C43.2351 37.4852 43.2713 37.5713 43.3246 37.6468C43.3778 37.7221 43.4469 37.7851 43.527 37.8312L46.5212 39.5399C44.3638 40.1985 42.5596 41.8818 42.5596 44.4784C42.5596 47.7845 45.3247 50.0087 49.4423 50.0087H51.5965C51.7635 50.008 51.9234 49.9417 52.042 49.8241L53.6584 48.2332C53.9147 48.865 54.3382 49.415 54.8835 49.8241C54.9919 49.9026 55.1221 49.9449 55.2559 49.9451H58.826C58.9327 49.9448 59.0376 49.9177 59.1312 49.8662C59.2247 49.8148 59.3037 49.7407 59.3611 49.6507C59.4184 49.5607 59.4523 49.4578 59.4594 49.3513C59.4665 49.2448 59.4468 49.1383 59.4019 49.0414L59.2143 48.5927C58.756 47.5745 58.7179 46.1903 58.7179 44.8603V38.6076C58.7179 35.0437 55.7299 32.6477 51.2815 32.6477L51.256 32.6445ZM48.3954 39.2376C48.7136 38.703 49.4996 37.8598 51.2083 37.8598C52.1343 37.8598 53.1175 38.1144 53.1175 38.6713C53.1175 39.1517 52.7484 39.4476 52.1629 39.4476C51.5774 39.4476 51.046 39.3967 50.4669 39.3426C49.8877 39.2885 49.2864 39.2344 48.6563 39.2344L48.3954 39.2376ZM50.2537 43.6129C51.1608 43.6578 52.0685 43.5382 52.9329 43.2597C52.5479 44.908 51.7111 45.573 50.1328 45.573C49.6905 45.573 48.2459 45.4934 48.2459 44.4848C48.2459 44.1665 48.2459 43.6129 49.9769 43.6129H50.2537Z" />
        <path
            d="M66.8189 49.6324C63.4078 49.6324 61.6068 47.3413 61.6068 43.0075V37.0794H59.618C59.5336 37.0794 59.4527 37.0458 59.393 36.9862C59.3334 36.9265 59.2998 36.8456 59.2998 36.7612V33.7446C59.2992 33.667 59.3269 33.5917 59.3779 33.5331C59.4289 33.4745 59.4996 33.4365 59.5767 33.4264L61.6068 33.1559V27.5906C61.6068 27.5063 61.6403 27.4253 61.7 27.3656C61.7596 27.3059 61.8406 27.2725 61.925 27.2725H66.2939C66.3782 27.2725 66.4592 27.3059 66.5188 27.3656C66.5786 27.4253 66.612 27.5063 66.612 27.5906V32.9619H71.0668C71.1513 32.9619 71.2322 32.9953 71.2919 33.0551C71.3516 33.1147 71.3851 33.1957 71.3851 33.2801V36.758C71.3851 36.8424 71.3516 36.9234 71.2919 36.983C71.2322 37.0427 71.1513 37.0762 71.0668 37.0762H66.612V43.2302C66.612 44.2039 66.6599 44.7671 66.7966 44.9039C66.8099 44.9151 66.8217 44.9279 66.8316 44.9421C66.8812 45.0056 66.9444 45.0571 67.0166 45.0929C67.0887 45.1287 67.168 45.1479 67.2485 45.1489C67.3204 45.1468 67.3906 45.1268 67.4529 45.0907C67.5151 45.0546 67.5674 45.0035 67.6049 44.9421C67.923 44.4776 67.923 43.5897 67.923 42.3583C67.9229 42.3023 67.9375 42.2471 67.9654 42.1985C67.9933 42.1499 68.0336 42.1095 68.0821 42.0815C68.1305 42.0536 68.1854 42.0388 68.2412 42.0388C68.2971 42.0388 68.352 42.0536 68.4004 42.0815L72.1233 44.2357C72.1773 44.2677 72.2206 44.3151 72.2478 44.3717C72.275 44.4283 72.2848 44.4917 72.276 44.5539C71.8752 47.0168 70.2332 49.6324 66.8189 49.6324Z"
            fill="#6E61FF" />
        <path
            d="M66.2937 27.5915V33.281H71.0668V36.7589H66.2937V43.037C66.2937 43.4984 66.2332 44.7903 66.5705 45.1275C66.6503 45.232 66.7527 45.317 66.8702 45.3759C66.9876 45.435 67.1169 45.4664 67.2483 45.468C67.3708 45.4661 67.491 45.4341 67.598 45.3747C67.7052 45.3154 67.796 45.2304 67.8624 45.1275C68.2316 44.5739 68.2316 43.6829 68.2316 42.3591L71.9577 44.5134C71.6172 46.604 70.2331 49.3118 66.8188 49.3118C62.9717 49.3118 61.9248 46.2667 61.9248 43.0052V36.7621H59.6178V33.7455L61.9248 33.4273V27.5915H66.2937ZM66.2937 26.9551H61.9248C61.756 26.9551 61.5942 27.0221 61.4748 27.1415C61.3555 27.2608 61.2885 27.4227 61.2885 27.5915V32.88L59.5352 33.1123C59.381 33.1325 59.2397 33.2083 59.1377 33.3256C59.0357 33.4428 58.9802 33.5933 58.9815 33.7487V36.7652C58.9815 36.934 59.0485 37.0958 59.1678 37.2152C59.2872 37.3346 59.4491 37.4016 59.6178 37.4016H61.2885V43.0115C61.2885 47.4886 63.2517 49.9547 66.8188 49.9547C70.4335 49.9547 72.1677 47.199 72.5846 44.6216C72.6043 44.4934 72.5844 44.3622 72.5276 44.2457C72.4707 44.129 72.3796 44.0326 72.2663 43.9693L68.5434 41.8151C68.4467 41.7592 68.3371 41.7298 68.2254 41.7298C68.1138 41.7298 68.004 41.7591 67.9073 41.8149C67.8106 41.8707 67.7302 41.951 67.6743 42.0476C67.6184 42.1443 67.5889 42.2539 67.5888 42.3655C67.5888 43.5302 67.5888 44.3765 67.3342 44.7711C67.2865 44.838 67.2547 44.838 67.242 44.838C67.1817 44.8343 67.1249 44.8082 67.0829 44.7648C67.0689 44.7441 67.0529 44.725 67.0352 44.7075C66.9492 44.542 66.911 44.0488 66.9238 43.2406V37.3985H71.0604C71.2292 37.3985 71.3911 37.3314 71.5104 37.2121C71.6297 37.0927 71.6968 36.9308 71.6968 36.7621V33.2841C71.6968 33.1153 71.6297 32.9535 71.5104 32.8341C71.3911 32.7148 71.2292 32.6477 71.0604 32.6477H66.9238V27.5915C66.9238 27.4227 66.8567 27.2608 66.7374 27.1415C66.6181 27.0221 66.4562 26.9551 66.2874 26.9551H66.2937Z" />
        <path
            d="M80.7465 49.6809C78.0832 49.6809 75.9289 48.7453 74.5129 46.973C73.3033 45.3627 72.67 43.3925 72.7151 41.379C72.7151 39.1962 73.3165 37.2043 74.4143 35.7755C75.843 33.9108 78.0386 32.9658 80.9406 32.9658C85.1026 32.9658 87.416 35.5591 88.1955 37.987C88.5397 38.9986 88.574 40.09 88.2942 41.1212C88.2785 41.1789 88.2469 41.231 88.203 41.2715C88.1591 41.312 88.1047 41.3393 88.046 41.3504L77.8636 43.2851C78.3377 44.6278 79.5501 45.3374 81.3956 45.3374C83.6994 45.3374 85.004 45.0351 85.7295 43.3933C85.7503 43.3459 85.7824 43.3044 85.8228 43.2722C85.8633 43.2401 85.911 43.2182 85.9618 43.2087H86.0222C86.1057 43.209 86.1857 43.2421 86.245 43.3009L89.0165 46.0184C89.0499 46.0508 89.0756 46.0901 89.0921 46.1335C89.1086 46.1769 89.1154 46.2235 89.112 46.2698C89.1077 46.3159 89.094 46.3607 89.0715 46.4012C89.049 46.4417 89.0184 46.4772 88.9815 46.5052L88.7811 46.6453C85.9872 48.6595 84.829 49.4899 81.3797 49.6713C81.1697 49.6745 80.9565 49.6809 80.7465 49.6809ZM80.9088 37.3251C80.1574 37.2971 79.4229 37.5519 78.8502 38.0391C78.2776 38.5263 77.9085 39.2105 77.8159 39.9567L83.2762 38.7284C83.064 38.2871 82.726 37.9183 82.3047 37.6686C81.8835 37.4189 81.3978 37.2994 80.9088 37.3251Z"
            fill="#6E61FF" />
        <path
            d="M80.941 33.284C84.7594 33.284 87.095 35.5941 87.8937 38.0856C88.2167 39.0389 88.2489 40.0668 87.9859 41.0385L77.4631 43.04C77.864 44.631 79.1559 45.6556 81.4023 45.6556C83.6489 45.6556 85.1985 45.3978 86.029 43.5205L88.8069 46.2379C85.9176 48.3158 84.8103 49.1685 81.3769 49.3467C81.1638 49.3467 80.9569 49.3626 80.7405 49.3626C75.0702 49.3626 73.0274 45.121 73.0274 41.3789C73.0274 37.7483 74.7488 33.284 80.9346 33.284M77.4567 40.3607L83.7157 38.9479C83.5289 38.3605 83.1527 37.8516 82.6462 37.5005C82.1397 37.1493 81.5311 36.9758 80.9155 37.0069C80.4669 36.9927 80.0201 37.0692 79.6017 37.2316C79.1833 37.394 78.8019 37.639 78.4802 37.952C78.1586 38.265 77.9033 38.6396 77.7297 39.0535C77.556 39.4674 77.4675 39.9119 77.4694 40.3607M80.9474 32.6475C77.9435 32.6475 75.662 33.6371 74.1697 35.5813C73.0305 37.0674 72.4037 39.1261 72.4037 41.3789C72.3573 43.4645 73.0154 45.5048 74.2715 47.1702C75.7479 49.0222 77.9912 49.999 80.7532 49.999C80.9696 49.999 81.1892 49.999 81.4119 49.9831C84.9503 49.7985 86.2136 48.8885 88.9819 46.8966L89.1792 46.7565C89.2544 46.7023 89.3168 46.6323 89.3621 46.5514C89.4074 46.4706 89.4345 46.3808 89.4414 46.2883C89.4484 46.1959 89.4351 46.103 89.4024 46.0163C89.3698 45.9295 89.3186 45.851 89.2524 45.786L86.4809 43.0686C86.3623 42.951 86.2023 42.8847 86.0354 42.8841C85.9952 42.8808 85.9547 42.8808 85.9144 42.8841C85.8137 42.9034 85.7192 42.9467 85.6389 43.0105C85.5586 43.0741 85.4948 43.1563 85.4531 43.25C84.7912 44.7423 83.6234 45.0065 81.4087 45.0065C80.3077 45.0065 78.9554 44.7296 78.3254 43.5109L88.1101 41.6526C88.2274 41.6305 88.3363 41.5759 88.424 41.4948C88.5119 41.4138 88.5751 41.3096 88.6065 41.1944C88.8992 40.1045 88.8648 38.9525 88.5077 37.882C87.6932 35.3364 85.2812 32.6348 80.9474 32.6348V32.6475ZM78.1185 39.6256C78.2976 39.0599 78.7673 38.4788 79.2506 38.1344C79.7339 37.7901 80.316 37.612 80.9091 37.6274C81.2677 37.6074 81.7698 37.7252 82.0959 37.8755C82.4141 38.0346 82.7324 38.3528 82.8915 38.5119L78.1185 39.6256Z" />
        <path
            d="M42.9343 74.5954C42.8499 74.5954 42.769 74.5619 42.7093 74.5022C42.6496 74.4425 42.6161 74.3615 42.6161 74.2772V65.0749C42.6161 63.8306 42.1802 62.3479 40.1023 62.3479C38.5368 62.3479 37.7763 63.2388 37.7763 65.0749V74.029C37.7763 74.1134 37.7427 74.1943 37.683 74.254C37.6234 74.3136 37.5425 74.3472 37.458 74.3472H33.1496C33.0653 74.3472 32.9843 74.3136 32.9246 74.254C32.8649 74.1943 32.8315 74.1134 32.8315 74.029V65.0749C32.8315 63.8306 32.3955 62.3479 30.3176 62.3479C28.7521 62.3479 27.9916 63.2388 27.9916 65.0749V74.2772C27.9916 74.3615 27.9581 74.4425 27.8984 74.5022C27.8387 74.5619 27.7578 74.5954 27.6734 74.5954H23.3332C23.2487 74.5954 23.1678 74.5619 23.1082 74.5022C23.0485 74.4425 23.0149 74.3615 23.0149 74.2772V62.8601C23.0584 61.4864 22.8569 60.1158 22.4199 58.8126L22.2895 58.3258C22.2771 58.2779 22.276 58.2278 22.2864 58.1795C22.2967 58.1312 22.3181 58.0859 22.349 58.0473C22.3799 58.0086 22.4194 57.9778 22.4642 57.9571C22.5091 57.9365 22.5582 57.9264 22.6076 57.928H26.2383C26.2851 57.9279 26.3312 57.9381 26.3736 57.958C26.416 57.9778 26.4534 58.0067 26.4834 58.0426L26.6361 58.2272C27.0254 58.7428 27.3225 59.322 27.5143 59.939L29.4935 58.0298C29.5179 58.008 29.5446 57.9888 29.5731 57.9725C29.9729 57.8238 30.397 57.7505 30.8236 57.7562C31.8609 57.7498 32.8869 57.9727 33.828 58.4089C34.7692 58.8451 35.6024 59.4839 36.268 60.2795C36.4939 60.0155 37.054 59.4363 38.4954 58.0298C38.5362 57.9908 38.5868 57.9634 38.6418 57.9503C39.0978 57.824 39.5686 57.7587 40.0419 57.7562C42.5683 57.7562 44.5985 58.5803 45.9191 60.1395C47.04 61.5413 47.6315 63.2931 47.5896 65.0875V74.2899C47.5896 74.3743 47.556 74.4552 47.4964 74.5149C47.4367 74.5745 47.3558 74.6081 47.2714 74.6081L42.9343 74.5954Z"
            fill="#6E61FF" />
        <path
            d="M40.0428 58.0622C45.4267 58.0622 47.2723 61.7852 47.2723 65.0626V74.265H42.9352V65.0753C42.9352 63.4461 42.197 62.0301 40.1032 62.0301C38.0094 62.0301 37.459 63.4461 37.459 65.0753V74.0295H33.1506V65.0753C33.1506 63.4461 32.4124 62.0301 30.3186 62.0301C28.2248 62.0301 27.6743 63.4461 27.6743 65.0753V74.2777H23.3341V62.8607C23.3748 61.4564 23.1668 60.0559 22.7199 58.724L22.5958 58.2627H26.2265L26.3793 58.4472C26.8001 59.0067 27.1042 59.6451 27.2734 60.3246H27.5916L29.714 58.2627C30.0691 58.1354 30.4442 58.0728 30.8213 58.0781C31.8361 58.073 32.8389 58.2971 33.7551 58.7334C34.6714 59.1698 35.4773 59.8072 36.113 60.5983H36.4312C36.463 60.4773 38.7382 58.2627 38.7382 58.2627C39.1692 58.1427 39.6144 58.0806 40.0619 58.0781M40.0619 57.4417C39.5629 57.4441 39.0665 57.5125 38.5854 57.6453C38.4762 57.671 38.3761 57.7261 38.2958 57.8044C37.2203 58.8482 36.6221 59.4464 36.2848 59.8027C35.5878 59.0543 34.7434 58.4582 33.8047 58.0518C32.8662 57.6455 31.8536 57.4378 30.8309 57.4417C30.3545 57.4347 29.8811 57.52 29.4371 57.6931C29.3791 57.7224 29.3256 57.7599 29.278 57.8044L27.6552 59.3955C27.4636 58.9233 27.2112 58.4784 26.9043 58.0717L26.8883 58.0526L26.7356 57.8681C26.6758 57.7962 26.6009 57.7384 26.5162 57.6989C26.4315 57.6592 26.3391 57.6388 26.2456 57.639H22.5958C22.4981 57.6387 22.4016 57.661 22.3139 57.704C22.2261 57.7471 22.1495 57.8097 22.0899 57.8871C22.031 57.9646 21.9906 58.0544 21.9719 58.1498C21.9531 58.2453 21.9565 58.3437 21.9817 58.4376L22.1058 58.8991C22.1058 58.915 22.1058 58.934 22.1058 58.95C22.5329 60.2178 22.729 61.5521 22.685 62.8893V74.3063C22.685 74.4751 22.752 74.637 22.8713 74.7563C22.9907 74.8757 23.1526 74.9427 23.3213 74.9427H27.6616C27.8303 74.9427 27.9922 74.8757 28.1116 74.7563C28.2309 74.637 28.298 74.4751 28.298 74.3063V65.0753C28.298 62.9402 29.3704 62.6665 30.3058 62.6665C31.7632 62.6665 32.5014 63.4779 32.5014 65.0753V74.0295C32.5014 74.1983 32.5685 74.3601 32.6878 74.4795C32.8071 74.5988 32.9691 74.6658 33.1378 74.6658H37.4463C37.615 74.6658 37.7769 74.5988 37.8963 74.4795C38.0156 74.3601 38.0827 74.1983 38.0827 74.0295V65.0753C38.0827 62.9402 39.155 62.6665 40.0905 62.6665C41.5478 62.6665 42.2861 63.4779 42.2861 65.0753V74.2777C42.2861 74.4465 42.3532 74.6084 42.4725 74.7277C42.5918 74.8471 42.7537 74.9141 42.9225 74.9141H47.2596C47.4284 74.9141 47.5902 74.8471 47.7096 74.7277C47.8289 74.6084 47.8959 74.4465 47.8959 74.2777V65.0753C47.9425 63.2086 47.3309 61.3848 46.1681 59.9237C44.7872 58.2881 42.668 57.4258 40.0492 57.4258L40.0619 57.4417Z" />
        <path
            d="M50.1012 74.5956C50.0168 74.5956 49.9359 74.562 49.8762 74.5024C49.8165 74.4427 49.783 74.3618 49.783 74.2774V58.431C49.783 58.3466 49.8165 58.2657 49.8762 58.206C49.9359 58.1463 50.0168 58.1129 50.1012 58.1129H54.4414C54.5258 58.1129 54.6068 58.1463 54.6664 58.206C54.7261 58.2657 54.7596 58.3466 54.7596 58.431V74.2774C54.7596 74.3618 54.7261 74.4427 54.6664 74.5024C54.6068 74.562 54.5258 74.5956 54.4414 74.5956H50.1012ZM51.2595 56.945C51.2175 56.9453 51.176 56.9372 51.1373 56.9214C51.0985 56.9055 51.0632 56.8822 51.0335 56.8528L49.6684 55.4781C49.6096 55.4189 49.5765 55.3389 49.5762 55.2554V53.1012C49.5764 53.0591 49.5849 53.0174 49.6012 52.9786C49.6176 52.9398 49.6415 52.9047 49.6716 52.8752L51.1958 51.3542C51.2252 51.3241 51.2604 51.3002 51.2992 51.2838C51.338 51.2674 51.3796 51.259 51.4217 51.2588H53.3564C53.3985 51.259 53.4402 51.2674 53.4789 51.2838C53.5177 51.3002 53.5529 51.3241 53.5823 51.3542L54.9506 52.7257C54.98 52.7554 55.0034 52.7907 55.0192 52.8295C55.035 52.8682 55.0431 52.9097 55.0428 52.9516V55.1058C55.0425 55.1893 55.0094 55.2693 54.9506 55.3286L53.4168 56.8654C53.3576 56.9242 53.2776 56.9574 53.1941 56.9578L51.2595 56.945Z"
            fill="#6E61FF" />
        <path
            d="M53.3462 51.5768L54.7144 52.9515V55.1056L53.1934 56.6266H51.2588L49.8874 55.2552V53.101L51.4147 51.5768H53.3493M54.4408 58.4309V74.2772H50.1005V58.4309H54.4408ZM53.3493 50.9404H51.4147C51.2462 50.9411 51.0848 51.0086 50.966 51.1281L49.4387 52.6491C49.3791 52.7084 49.3319 52.7788 49.2996 52.8563C49.2675 52.9338 49.2509 53.017 49.251 53.101V55.2552C49.2516 55.4237 49.3191 55.5851 49.4387 55.7039L50.8101 57.0753C50.9289 57.1949 51.0903 57.2624 51.2588 57.263H53.1966C53.3652 57.2624 53.5265 57.1949 53.6453 57.0753L55.1663 55.5543C55.2859 55.4356 55.3534 55.2741 55.354 55.1056V52.9515C55.3545 52.8676 55.3384 52.7847 55.3068 52.7071C55.2752 52.6296 55.2285 52.559 55.1695 52.4996L53.8044 51.1377C53.7452 51.0781 53.6748 51.0309 53.5972 50.9986C53.5197 50.9664 53.4365 50.9499 53.3525 50.95L53.3493 50.9404ZM54.4408 57.7945H50.1005C49.9318 57.7945 49.7699 57.8615 49.6505 57.9809C49.5312 58.1002 49.4642 58.262 49.4642 58.4309V74.2772C49.4642 74.446 49.5312 74.6079 49.6505 74.7272C49.7699 74.8466 49.9318 74.9136 50.1005 74.9136H54.4408C54.6096 74.9136 54.7714 74.8466 54.8908 74.7272C55.0101 74.6079 55.0772 74.446 55.0772 74.2772V58.4309C55.0772 58.262 55.0101 58.1002 54.8908 57.9809C54.7714 57.8615 54.6096 57.7945 54.4408 57.7945Z" />
        <path
            d="M66.994 74.5958C66.9096 74.5958 66.8287 74.5624 66.769 74.5026C66.7093 74.443 66.6758 74.362 66.6758 74.2776V65.0753C66.6758 64.2384 66.434 62.2879 64.1938 62.2879C62.6473 62.2879 61.8964 63.1979 61.8964 65.0753V74.2776C61.8964 74.362 61.8629 74.443 61.8032 74.5026C61.7436 74.5624 61.6626 74.5958 61.5782 74.5958H57.238C57.1536 74.5958 57.0727 74.5624 57.013 74.5026C56.9532 74.443 56.9198 74.362 56.9198 74.2776V62.8606C56.9228 61.328 56.6997 59.8034 56.2579 58.3358C56.2437 58.2874 56.2413 58.2362 56.2508 58.1866C56.2602 58.137 56.2814 58.0904 56.3126 58.0505C56.3437 58.0108 56.3838 57.9789 56.4296 57.9577C56.4754 57.9365 56.5257 57.9265 56.5761 57.9285H60.1432C60.1891 57.9285 60.2345 57.9384 60.2763 57.9576C60.318 57.977 60.3551 58.005 60.385 58.0399C60.864 58.5726 61.2117 59.2101 61.4 59.9014L63.6497 57.7981C63.6955 57.7547 63.753 57.7259 63.8152 57.7153C64.1063 57.6661 64.4014 57.6448 64.6966 57.6516C69.8387 57.6516 71.662 61.6515 71.662 65.0753V74.2776C71.662 74.362 71.6285 74.443 71.5688 74.5026C71.5091 74.5624 71.4281 74.5958 71.3438 74.5958H66.994Z"
            fill="#6E61FF" />
        <path
            d="M64.6836 57.9699C69.8862 57.9699 71.3309 62.1066 71.3309 65.0753V74.2776H66.9938V65.0753C66.9938 63.4843 66.2524 61.9697 64.1936 61.9697C62.1349 61.9697 61.578 63.4461 61.578 65.0753V74.2776H57.2377V62.8607C57.2407 61.2979 57.0134 59.7432 56.5632 58.2468H60.1302C60.6485 58.8173 60.9997 59.5198 61.1452 60.2768H61.4634L63.8627 58.0304C64.1368 57.9828 64.415 57.9625 64.6932 57.9699M64.6932 57.3335C64.3798 57.3258 64.0664 57.3492 63.7577 57.4035C63.6377 57.4243 63.5268 57.4809 63.4395 57.5658L61.5558 59.3286C61.3357 58.7818 61.0248 58.2762 60.6362 57.8331C60.5761 57.7628 60.5014 57.7065 60.4173 57.668C60.3332 57.6295 60.2418 57.6098 60.1493 57.6103H56.5632C56.4644 57.6103 56.3669 57.6334 56.2786 57.6775C56.1902 57.7217 56.1133 57.7859 56.054 57.8649C55.9948 57.944 55.9547 58.0357 55.937 58.1329C55.9193 58.2301 55.9246 58.3301 55.9522 58.4249C56.3808 59.8642 56.5952 61.3589 56.5886 62.8607V74.2776C56.5886 74.4465 56.6556 74.6083 56.775 74.7276C56.8943 74.8471 57.0562 74.9141 57.225 74.9141H61.5653C61.7341 74.9141 61.8959 74.8471 62.0152 74.7276C62.1347 74.6083 62.2017 74.4465 62.2017 74.2776V65.0753C62.2017 62.8861 63.2581 62.6061 64.1809 62.6061C65.9691 62.6061 66.3447 63.9489 66.3447 65.0753V74.2776C66.3447 74.4465 66.4117 74.6083 66.5311 74.7276C66.6504 74.8471 66.8122 74.9141 66.9811 74.9141H71.3181C71.4869 74.9141 71.6488 74.8471 71.7681 74.7276C71.8875 74.6083 71.9545 74.4465 71.9545 74.2776V65.0753C71.9545 61.5051 70.0453 57.3335 64.6709 57.3335H64.6932Z" />
        <path
            d="M10.421 24.3588C10.3366 24.3588 10.2557 24.3253 10.196 24.2656C10.1363 24.2059 10.1028 24.1249 10.1028 24.0406V14.8414C10.1028 13.9822 9.8609 11.9776 7.62081 11.9776C5.71161 11.9776 5.29477 13.5273 5.29477 14.8414V24.0406C5.29477 24.1249 5.26125 24.2059 5.20157 24.2656C5.14189 24.3253 5.06096 24.3588 4.97657 24.3588H0.639491C0.555098 24.3588 0.474163 24.3253 0.414488 24.2656C0.354814 24.2059 0.321289 24.1249 0.321289 24.0406V0.964682C0.321289 0.880293 0.354814 0.799352 0.414488 0.739678C0.474163 0.680004 0.555098 0.646484 0.639491 0.646484H4.91611C5.0005 0.646484 5.08143 0.680004 5.14112 0.739678C5.20079 0.799352 5.23431 0.880293 5.23431 0.964682V9.29199C5.50478 9.0088 6.00117 8.52195 6.90804 7.6278C6.94137 7.5912 6.98277 7.56287 7.02896 7.54507C7.37207 7.44558 7.72821 7.39838 8.08539 7.40506C13.2466 7.40506 15.0858 11.4049 15.0858 14.8319V24.031C15.0858 24.1155 15.0523 24.1964 14.9926 24.2561C14.933 24.3157 14.852 24.3493 14.7676 24.3493L10.421 24.3588Z"
            fill="#6E61FF" />
        <path
            d="M4.9162 0.964529V9.7723H5.2344C5.2344 9.74371 7.14361 7.86311 7.14361 7.86311C7.45356 7.77304 7.77552 7.73118 8.09821 7.73902C13.3295 7.73902 14.7804 11.8915 14.7804 14.8476V24.0468H10.4211V14.8413C10.4211 13.2502 9.68288 11.6592 7.62091 11.6592C5.55896 11.6592 4.97666 13.228 4.97666 14.8413V24.0404H0.636401V0.964529H4.9162ZM4.9162 0.328125H0.636401C0.467617 0.328125 0.305746 0.395174 0.186398 0.514523C0.0670488 0.633871 0 0.795742 0 0.964529V24.0404C0 24.2092 0.0670488 24.3711 0.186398 24.4904C0.305746 24.6098 0.467617 24.6769 0.636401 24.6769H4.97666C5.14544 24.6769 5.30732 24.6098 5.42666 24.4904C5.54602 24.3711 5.61306 24.2092 5.61306 24.0404V14.8413C5.61306 13.1612 6.28764 12.2957 7.62091 12.2957C9.50466 12.2957 9.78469 13.8866 9.78469 14.8413V24.0404C9.78469 24.2092 9.85172 24.3711 9.97106 24.4904C10.0904 24.6098 10.2523 24.6769 10.4211 24.6769H14.7613C14.9302 24.6769 15.092 24.6098 15.2113 24.4904C15.3307 24.3711 15.3977 24.2092 15.3977 24.0404V14.8413C15.3977 11.2679 13.4886 7.09625 8.07911 7.09625C7.68949 7.08983 7.30113 7.14239 6.92723 7.25216C6.83477 7.28372 6.75013 7.33472 6.67903 7.40172L5.72443 8.35632L5.54942 8.53133V0.964529C5.54942 0.795742 5.48237 0.633871 5.36303 0.514523C5.24367 0.395174 5.0818 0.328125 4.91302 0.328125H4.9162Z" />
        <path
            d="M19.1208 31.5177C15.0415 31.5177 14.0296 28.0174 13.7909 26.5124C13.7825 26.4498 13.7928 26.3862 13.8206 26.3296C13.8483 26.2728 13.8923 26.2258 13.9469 26.1942L17.6699 24.0399C17.718 24.0113 17.7729 23.9959 17.8289 23.9954C17.9133 23.9954 17.9942 24.0289 18.0539 24.0886C18.1137 24.1483 18.1471 24.2292 18.1471 24.3136C18.1471 24.5936 18.1471 24.8387 18.1471 25.0581C18.1471 26.1559 18.1471 26.4583 18.4176 26.7892C18.4666 26.8422 18.5263 26.8843 18.5925 26.9128C18.6589 26.9413 18.7304 26.9555 18.8026 26.9547C18.9044 26.9547 19.2513 26.9133 19.4232 26.401L20.5845 23.063L14.857 8.46401C14.8387 8.41601 14.8324 8.36432 14.8385 8.31334C14.8446 8.26237 14.863 8.21362 14.8919 8.17126C14.9211 8.12808 14.9605 8.09273 15.0065 8.06832C15.0526 8.0439 15.1039 8.03117 15.156 8.03125H19.8941C19.9599 8.03152 20.0239 8.05215 20.0774 8.09033C20.1311 8.12851 20.1715 8.18236 20.1931 8.24445L23.3752 17.2686L26.9486 8.23172C26.9722 8.17252 27.013 8.12175 27.0658 8.08601C27.1185 8.05027 27.1808 8.03119 27.2445 8.03125H32.0429C32.0959 8.031 32.1481 8.04396 32.1947 8.06896C32.2414 8.09396 32.2812 8.13023 32.3102 8.17445C32.3407 8.22115 32.359 8.27472 32.3635 8.33031C32.3679 8.38588 32.3583 8.4417 32.3357 8.49264C31.9825 9.28496 23.7157 27.9029 23.4706 28.4343C22.5065 30.5598 21.1574 31.5177 19.1208 31.5177Z"
            fill="#6E61FF" />
        <path
            d="M32.0587 8.3398C32.0587 8.3398 23.4451 27.75 23.1969 28.2783C22.2423 30.3688 20.9504 31.1993 19.1048 31.1993C15.6906 31.1993 14.4273 28.5551 14.09 26.4613L17.813 24.3071C17.813 25.9713 17.7206 26.4613 18.1534 26.9864C18.2333 27.0755 18.3316 27.1463 18.4415 27.1942C18.5512 27.2419 18.6701 27.2655 18.7898 27.2632C19.0062 27.2518 19.213 27.1706 19.3794 27.0318C19.5457 26.893 19.6626 26.704 19.7126 26.4932L20.9122 23.047L15.1687 8.3398H19.9067L23.2287 17.7554H23.5469L27.2699 8.3398H32.0683M32.0683 7.7034H27.2603C27.1328 7.70328 27.0083 7.74142 26.9028 7.81291C26.7972 7.88439 26.7157 7.98592 26.6685 8.10434L23.4069 16.3489L20.5049 8.12661C20.4609 8.00302 20.3799 7.89602 20.2729 7.82026C20.1657 7.7445 20.0378 7.70369 19.9067 7.7034H15.1687C15.0649 7.70299 14.9625 7.72799 14.8705 7.77623C14.7786 7.82447 14.6998 7.89448 14.6411 7.98016C14.5824 8.06583 14.5456 8.16457 14.5339 8.26774C14.5221 8.37092 14.5357 8.47541 14.5736 8.5721L20.244 23.0598L19.1208 26.2832C19.0158 26.6014 18.8471 26.6268 18.8025 26.6268C18.7455 26.6307 18.6889 26.6138 18.6434 26.5791C18.4493 26.3436 18.4366 26.1336 18.4493 25.0549C18.4493 24.8353 18.4493 24.5872 18.4493 24.3071C18.4492 24.1955 18.4198 24.0859 18.3639 23.9893C18.3081 23.8927 18.2278 23.8124 18.1312 23.7566C18.0345 23.7006 17.9247 23.6709 17.813 23.6708C17.7011 23.6709 17.5914 23.7006 17.4948 23.7566L13.7718 25.9108C13.6614 25.9732 13.5721 26.067 13.5155 26.1804C13.4587 26.2938 13.4372 26.4216 13.4536 26.5473C13.985 29.8502 16.0946 31.8199 19.0953 31.8199C21.259 31.8199 22.7419 30.773 23.7665 28.5264C24.0083 28.0142 32.1224 9.72713 32.6188 8.61027C32.6631 8.52134 32.686 8.42327 32.6856 8.32389C32.6856 8.15512 32.6186 7.99324 32.4993 7.87389C32.3799 7.75454 32.218 7.6875 32.0493 7.6875L32.0683 7.7034Z" />
        <path
            d="M41.57 24.3906C40.975 24.3906 40.068 24.2984 40.0299 24.2952C39.958 24.288 39.8906 24.2566 39.8389 24.206L37.9298 22.3573C37.7586 23.1155 37.3413 23.7959 36.7429 24.292C36.6881 24.3344 36.6211 24.3579 36.5519 24.3588H33.0517C33.0031 24.3587 32.9552 24.3474 32.9116 24.3259C32.868 24.3044 32.83 24.2733 32.8003 24.2347C32.7701 24.1954 32.7495 24.1497 32.7401 24.1011C32.7308 24.0525 32.7328 24.0023 32.7462 23.9547C33.1769 22.5085 33.4008 21.0088 33.4113 19.4999V0.964682C33.4113 0.880293 33.4448 0.799352 33.5045 0.739678C33.5642 0.680004 33.6451 0.646484 33.7295 0.646484H38.0666C38.1509 0.646484 38.2319 0.680004 38.2916 0.739678C38.3513 0.799352 38.3847 0.880293 38.3847 0.964682L38.3561 9.02789C38.8448 8.53909 39.4283 8.15541 40.0707 7.90041C40.7131 7.64541 41.401 7.52448 42.0918 7.54507C44.6374 7.54507 46.6198 8.66196 47.8195 10.7749C48.9872 12.8272 49.1145 15.2297 49.1145 16.1683C49.1388 18.0633 48.5946 19.9219 47.5522 21.5045C46.2348 23.3914 44.1633 24.3906 41.57 24.3906ZM41.169 11.5894C39.2408 11.5894 38.3784 12.9514 38.3784 16.0092C38.3784 19.0671 39.2312 20.1458 41.1372 20.1458C43.8419 20.1458 44.0519 16.8461 44.0519 15.7355C44.0519 12.9831 43.0814 11.5894 41.169 11.5894Z"
            fill="#6E61FF" />
        <path
            d="M38.0599 0.963771L38.0313 9.51704H38.3495C38.81 8.97536 39.3867 8.54467 40.0369 8.25706C40.687 7.96945 41.3937 7.83236 42.1042 7.856C47.7046 7.856 48.8119 13.2654 48.8119 16.161C48.8119 19.3621 47.2209 24.0715 41.5824 24.0715C40.9969 24.0715 40.0741 23.9792 40.0741 23.9792L38.0121 21.9777H37.694C37.5753 22.7792 37.1721 23.5111 36.558 24.0397H33.0578C33.4986 22.5617 33.7268 21.0285 33.7356 19.4862V0.963771H38.0726M41.1497 20.4599C43.8576 20.4599 44.3826 17.5484 44.3826 15.7314C44.3826 13.5773 43.7652 11.2766 41.1815 11.2766C38.4417 11.2766 38.0726 13.8605 38.0726 16.0147C38.0726 18.3852 38.5341 20.4599 41.1497 20.4599ZM38.0726 0.336914H33.7228C33.5541 0.336914 33.3921 0.403963 33.2728 0.523312C33.1535 0.64266 33.0864 0.804532 33.0864 0.973314V19.4958C33.0771 20.9811 32.8565 22.4574 32.4309 23.8806C32.405 23.9751 32.4012 24.0743 32.4199 24.1705C32.4385 24.2667 32.4791 24.3573 32.5386 24.4352C32.5981 24.5131 32.6747 24.5763 32.7625 24.6197C32.8504 24.6631 32.947 24.6857 33.0451 24.6856H36.5452C36.6845 24.6854 36.8196 24.6396 36.9303 24.5552C37.4498 24.1404 37.8441 23.5896 38.0694 22.9642L39.6096 24.4565C39.7121 24.5569 39.8455 24.6197 39.9882 24.6347C40.0264 24.6347 40.9428 24.7301 41.5601 24.7301C44.2616 24.7301 46.4222 23.6833 47.8064 21.7041C48.8863 20.0672 49.4505 18.1441 49.426 16.1833C49.426 12.0467 47.5168 7.24186 42.0819 7.24186C40.8511 7.21522 39.6468 7.60172 38.6613 8.33966L38.6868 0.986046C38.6868 0.817262 38.6197 0.65539 38.5004 0.536042C38.3811 0.416693 38.2191 0.349645 38.0504 0.349645L38.0726 0.336914ZM41.1369 19.814C39.9309 19.814 38.8206 19.1011 38.6963 16.6415C38.6616 12.7371 39.9469 11.9035 41.1687 11.9035C43.9119 11.7825 43.7334 15.4196 43.7334 16.3584C43.7334 17.3925 43.5456 19.814 41.1369 19.814Z" />
        <path
            d="M50.9026 24.3584C50.8182 24.3584 50.7373 24.3248 50.6776 24.2652C50.6179 24.2055 50.5844 24.1246 50.5844 24.0402V12.6359C50.6221 11.1218 50.3894 9.61328 49.8971 8.18103C49.8792 8.13306 49.8731 8.08148 49.8794 8.03067C49.8856 7.97985 49.9041 7.93129 49.9331 7.88914C49.9621 7.84697 50.0009 7.81243 50.0462 7.78847C50.0914 7.76449 50.1419 7.7518 50.193 7.75145H53.8842C53.9283 7.75115 53.972 7.76006 54.0126 7.77758C54.0531 7.79511 54.0896 7.8209 54.1196 7.85329C54.5553 8.32933 54.8812 8.89527 55.0742 9.51109L56.8306 7.7801C56.8752 7.73613 56.9316 7.70625 56.9929 7.69418C57.441 7.622 57.8946 7.589 58.3485 7.59554C62.0142 7.59554 64.2034 10.3225 64.2034 12.9604V14.1601C64.2033 14.2164 64.1882 14.2717 64.1597 14.3204C64.1312 14.369 64.0903 14.4093 64.0411 14.4368L60.2895 16.5624C60.2404 16.5883 60.1859 16.6024 60.1304 16.6038C60.0744 16.6032 60.0195 16.5878 59.9714 16.5592C59.9233 16.5315 59.8832 16.4916 59.8553 16.4436C59.8274 16.3956 59.8125 16.3412 59.8123 16.2856V14.5928C59.8123 13.0368 59.0454 12.1108 57.763 12.1108C55.7456 12.1108 55.5897 14.2204 55.5897 14.8696V24.0688C55.5897 24.1532 55.5562 24.2342 55.4965 24.2938C55.4369 24.3535 55.3559 24.387 55.2715 24.387L50.9026 24.3584Z"
            fill="#6E61FF" />
        <path
            d="M58.3483 7.88543C61.8486 7.88543 63.8851 10.5329 63.8851 12.9321V14.1317L60.1303 16.2541V14.5645C60.1303 12.9002 59.2998 11.7643 57.7628 11.7643C55.8855 11.7643 55.2713 13.4253 55.2713 14.8412V24.0405H50.9025V12.6362C50.9421 11.0787 50.7017 9.52665 50.1929 8.05407H53.884C54.3568 8.56375 54.6862 9.18954 54.8386 9.86781H55.1568L57.066 7.99043C57.4942 7.92272 57.9276 7.89184 58.3611 7.89815M58.3611 7.26175C57.8858 7.25416 57.4109 7.28931 56.9419 7.36676C56.8215 7.39206 56.711 7.45175 56.6237 7.53859L55.2172 8.92275C55.0065 8.44478 54.7196 8.00418 54.3677 7.61815C54.3077 7.55434 54.2352 7.5036 54.1547 7.46911C54.0742 7.43462 53.9874 7.41711 53.8999 7.41767H50.2087C50.1057 7.41766 50.0042 7.44267 49.913 7.49057C49.8217 7.53847 49.7435 7.6078 49.6849 7.69263C49.6264 7.77745 49.5893 7.87524 49.5769 7.97755C49.5645 8.07985 49.5772 8.18365 49.6137 8.27999C50.0955 9.68031 50.3219 11.1558 50.282 12.6362V24.0532C50.282 24.222 50.349 24.3839 50.4683 24.5032C50.5877 24.6226 50.7496 24.6896 50.9183 24.6896H55.2873C55.456 24.6896 55.6179 24.6226 55.7373 24.5032C55.8566 24.3839 55.9237 24.222 55.9237 24.0532V14.8412C55.9237 14.2685 56.0573 12.4007 57.7788 12.4007C59.287 12.4007 59.5098 13.7562 59.5098 14.5645V16.2541C59.5098 16.4229 59.5768 16.5847 59.6962 16.7042C59.8155 16.8235 59.9774 16.8905 60.1462 16.8905C60.2573 16.8916 60.3668 16.8642 60.4643 16.8109L64.2191 14.6853C64.3162 14.6293 64.3969 14.5486 64.4527 14.4513C64.5086 14.3541 64.5378 14.2439 64.5374 14.1317V12.9321C64.5374 10.1383 62.2272 7.24902 58.3642 7.24902L58.3611 7.26175Z" />
        <path
            d="M65.9445 24.3588C65.8601 24.3588 65.7791 24.3253 65.7195 24.2656C65.6597 24.2059 65.6263 24.1249 65.6263 24.0406V8.18147C65.6263 8.09708 65.6597 8.01615 65.7195 7.95648C65.7791 7.8968 65.8601 7.86328 65.9445 7.86328H70.2847C70.3691 7.86328 70.45 7.8968 70.5097 7.95648C70.5693 8.01615 70.6029 8.09708 70.6029 8.18147V24.0278C70.6029 24.1123 70.5693 24.1932 70.5097 24.2529C70.45 24.3125 70.3691 24.3461 70.2847 24.3461L65.9445 24.3588ZM65.7313 6.32637C65.6469 6.32637 65.5659 6.29284 65.5063 6.23317C65.4466 6.17349 65.4131 6.09256 65.4131 6.00817V0.964682C65.4131 0.880293 65.4466 0.799352 65.5063 0.739678C65.5659 0.680004 65.6469 0.646484 65.7313 0.646484H70.5616C70.6459 0.646484 70.7268 0.680004 70.7866 0.739678C70.8462 0.799352 70.8797 0.880293 70.8797 0.964682V6.00817C70.8797 6.09256 70.8462 6.17349 70.7866 6.23317C70.7268 6.29284 70.6459 6.32637 70.5616 6.32637H65.7313Z"
            fill="#6E61FF" />
        <path
            d="M70.5614 0.964562V6.00804H65.7311V0.964562H70.5614ZM70.2845 8.18135V24.0277H65.9443V8.18135H70.2845ZM70.5614 0.31543H65.7311C65.5623 0.31543 65.4004 0.382478 65.2811 0.501826C65.1618 0.621175 65.0947 0.783046 65.0947 0.951831V5.99532C65.0947 6.1641 65.1618 6.32597 65.2811 6.44532C65.4004 6.56466 65.5623 6.63171 65.7311 6.63171H70.5614C70.7301 6.63171 70.892 6.56466 71.0114 6.44532C71.1307 6.32597 71.1978 6.1641 71.1978 5.99532V0.964562C71.1978 0.795777 71.1307 0.633906 71.0114 0.514557C70.892 0.395209 70.7301 0.32816 70.5614 0.32816V0.31543ZM70.2845 7.54495H65.9443C65.7754 7.54495 65.6136 7.612 65.4943 7.73134C65.3749 7.8507 65.3079 8.01257 65.3079 8.18135V24.0277C65.3079 24.1966 65.3749 24.3584 65.4943 24.4777C65.6136 24.5971 65.7754 24.6641 65.9443 24.6641H70.2845C70.4533 24.6641 70.6152 24.5971 70.7345 24.4777C70.8539 24.3584 70.9209 24.1966 70.9209 24.0277V8.18135C70.9209 8.01257 70.8539 7.8507 70.7345 7.73134C70.6152 7.612 70.4533 7.54495 70.2845 7.54495Z" />
        <path
            d="M79.6354 24.0723C77.0421 24.0723 74.9738 23.0731 73.65 21.1798C72.6076 19.5972 72.0634 17.7385 72.0877 15.8436C72.0877 14.9081 72.215 12.5025 73.3828 10.4501C74.5856 8.33724 76.5648 7.22035 79.1104 7.22035C79.8028 7.19972 80.4921 7.32121 81.1357 7.57734C81.7793 7.83347 82.3635 8.21879 82.8524 8.70953L82.8239 0.646326C82.8239 0.561934 82.8573 0.480994 82.917 0.421319C82.9767 0.361645 83.0577 0.328125 83.142 0.328125H87.4791C87.5635 0.328125 87.6444 0.361645 87.7041 0.421319C87.7637 0.480994 87.7973 0.561934 87.7973 0.646326V19.1688C87.8077 20.6777 88.0317 22.1775 88.4623 23.6236C88.4758 23.6713 88.4778 23.7214 88.4684 23.77C88.459 23.8186 88.4384 23.8643 88.4083 23.9036C88.3786 23.9421 88.3405 23.9734 88.297 23.9948C88.2534 24.0163 88.2055 24.0276 88.1568 24.0277H84.6567C84.5875 24.0268 84.5204 24.0034 84.4657 23.9609C83.8674 23.4652 83.4509 22.7846 83.282 22.0263L81.3728 23.875C81.3211 23.9255 81.2538 23.957 81.1819 23.9641C81.1374 23.98 80.2304 24.0723 79.6354 24.0723ZM80.0364 11.2711C78.1272 11.2711 77.1535 12.6648 77.1535 15.4076C77.1535 16.5182 77.3635 20.1361 80.0682 20.1361C81.9774 20.1361 82.8269 18.7615 82.8269 15.6813C82.8269 12.6011 81.9646 11.2711 80.0364 11.2711Z"
            fill="#6E61FF" />
        <path
            d="M80.5905 74.6758C77.9971 74.6758 75.9289 73.6766 74.6051 71.7833C73.5626 70.2007 73.0184 68.342 73.0428 66.4471C73.0428 65.5116 73.17 63.106 74.3378 61.0536C75.5407 58.9408 77.5198 57.8239 80.0654 57.8239C80.7578 57.8032 81.4471 57.9247 82.0907 58.1809C82.7343 58.437 83.3186 58.8223 83.8075 59.3131L83.7788 51.2498C83.7788 51.1655 83.8124 51.0845 83.872 51.0248C83.9317 50.9652 84.0126 50.9316 84.097 50.9316H88.4341C88.5185 50.9316 88.5995 50.9652 88.6591 51.0248C88.7188 51.0845 88.7523 51.1655 88.7523 51.2498V69.7723C88.7628 71.2812 88.9867 72.781 89.4173 74.2271C89.4307 74.2748 89.4328 74.3249 89.4234 74.3735C89.4141 74.4221 89.3934 74.4679 89.3632 74.5071C89.3336 74.5457 89.2956 74.5769 89.252 74.5984C89.2084 74.6198 89.1605 74.6311 89.1119 74.6313H85.6116C85.5425 74.6303 85.4754 74.6069 85.4208 74.5644C84.8224 74.0688 84.4059 73.3881 84.2371 72.6298L82.3279 74.4784C82.2762 74.529 82.2088 74.5605 82.1369 74.5676C82.0924 74.5835 81.1855 74.6758 80.5905 74.6758ZM80.9914 61.8746C79.0822 61.8746 78.1085 63.2683 78.1085 66.0111C78.1085 67.1217 78.3186 70.7396 81.0232 70.7396C82.9325 70.7396 83.782 69.365 83.782 66.2848C83.782 63.2046 82.9197 61.8746 80.9914 61.8746Z"
            fill="#6E61FF" />
        <path
            d="M87.4831 0.645958V19.1684C87.4949 20.7112 87.7263 22.2443 88.1703 23.7218H84.6702C84.0561 23.1933 83.6529 22.4614 83.5341 21.6599H83.2159L81.154 23.6614C81.154 23.6614 80.2312 23.7537 79.6458 23.7537C74.0168 23.7537 72.4162 19.0443 72.4162 15.8432C72.4162 12.954 73.5236 7.53818 79.1239 7.53818C79.8345 7.51455 80.5412 7.65164 81.1913 7.93925C81.8414 8.22685 82.4182 8.65755 82.8787 9.19919H83.1969L83.1682 0.645958H87.5053M80.0279 20.5336C82.6434 20.5336 83.1682 18.0611 83.1682 15.6873C83.1682 13.5331 82.7991 10.9493 80.0595 10.9493C77.4756 10.9493 76.8583 13.2562 76.8583 15.4041C76.8583 17.221 77.3199 20.5336 80.0279 20.5336ZM87.5053 1.06411e-05H83.146C83.0622 -0.000473592 82.9792 0.0155733 82.9017 0.0472435C82.8242 0.0789138 82.7536 0.12558 82.6941 0.184563C82.6352 0.244028 82.5885 0.314553 82.5568 0.392091C82.5251 0.469628 82.5091 0.552657 82.5095 0.636413L82.535 7.99002C81.5475 7.25776 80.3433 6.87692 79.1144 6.90815C73.705 6.90815 71.7703 11.7257 71.7703 15.8496C71.7459 17.8104 72.3101 19.7335 73.3899 21.3704C74.7741 23.3496 76.9347 24.3965 79.6362 24.3965C80.2472 24.3965 81.1699 24.3042 81.2081 24.301C81.3508 24.2859 81.4843 24.2232 81.5868 24.1228L83.1269 22.6304C83.3523 23.2559 83.7466 23.8066 84.266 24.2214C84.3767 24.3058 84.5119 24.3517 84.6511 24.3519H88.1512C88.2493 24.3519 88.3459 24.3294 88.4338 24.2859C88.5216 24.2425 88.5983 24.1794 88.6578 24.1015C88.7172 24.0235 88.7578 23.933 88.7764 23.8368C88.7952 23.7406 88.7913 23.6413 88.7654 23.5469C88.3399 22.1238 88.1192 20.6474 88.1099 19.162V0.645958C88.1099 0.477173 88.0428 0.315302 87.9235 0.195953C87.8042 0.076605 87.6423 0.00955631 87.4735 0.00955631L87.5053 1.06411e-05ZM80.0595 19.8972C77.95 19.8972 77.4724 17.0842 77.4724 16.0501C77.4724 12.2317 78.755 11.5953 80.0372 11.5953C82.3692 11.5953 82.5095 14.3063 82.5095 16.3332C82.5095 17.988 81.7684 19.8972 80.0595 19.8972Z" />
        <path
            d="M88.4372 51.2495V69.7719C88.449 71.3147 88.6804 72.8479 89.1245 74.3254H85.6243C85.0102 73.7968 84.607 73.0648 84.4883 72.2634H84.1701L82.1082 74.2649C82.1082 74.2649 81.1854 74.3572 80.5999 74.3572C74.9709 74.3572 73.3703 69.6478 73.3703 66.4467C73.3703 63.5574 74.4777 58.1417 80.078 58.1417C80.7886 58.1181 81.4953 58.2551 82.1454 58.5427C82.7956 58.8304 83.3723 59.2611 83.8328 59.8027H84.151L84.1223 51.2495H88.4595M80.982 71.137C83.5976 71.137 84.1223 68.6646 84.1223 66.2908C84.1223 64.1365 83.7532 61.5528 81.0136 61.5528C78.4297 61.5528 77.8125 63.8598 77.8125 66.0076C77.8125 67.8246 78.2741 71.137 80.982 71.137ZM88.4595 50.6035H84.1001C84.0163 50.603 83.9333 50.6191 83.8558 50.6507C83.7783 50.6824 83.7078 50.7291 83.6482 50.788C83.5893 50.8475 83.5426 50.9181 83.5109 50.9956C83.4793 51.0731 83.4632 51.1562 83.4637 51.2399L83.4891 58.5935C82.5017 57.8613 81.2975 57.4804 80.0685 57.5116C74.6591 57.5116 72.7244 62.3292 72.7244 66.4531C72.7 68.4139 73.2642 70.337 74.344 71.9738C75.7282 73.9531 77.8888 74.9999 80.5903 74.9999C81.2013 74.9999 82.124 74.9077 82.1623 74.9045C82.305 74.8895 82.4384 74.8267 82.541 74.7262L84.081 73.2339C84.3064 73.8593 84.7007 74.4101 85.2201 74.825C85.3308 74.9093 85.4661 74.9552 85.6052 74.9554H89.1054C89.2034 74.9555 89.3 74.9329 89.3879 74.8895C89.4758 74.8461 89.5524 74.7829 89.6119 74.705C89.6713 74.6271 89.7119 74.5365 89.7306 74.4402C89.7493 74.344 89.7455 74.2448 89.7195 74.1503C89.294 72.7272 89.0734 71.2508 89.064 69.7656V51.2495C89.064 51.0806 88.997 50.9188 88.8776 50.7995C88.7583 50.6801 88.5965 50.613 88.4276 50.613L88.4595 50.6035ZM81.0136 70.5007C78.9041 70.5007 78.4265 67.6877 78.4265 66.6535C78.4265 62.8351 79.7091 62.1987 80.9913 62.1987C83.3233 62.1987 83.4637 64.9098 83.4637 66.9367C83.4637 68.5914 82.7225 70.5007 81.0136 70.5007Z" />
        <path
            d="M2.41504 67.096C2.41504 65.3459 3.25191 62.8066 6.36072 62.8066C9.46953 62.8066 10.3032 65.3522 10.3032 67.096C10.3032 68.9098 9.4505 71.2326 6.36072 71.2326C3.271 71.2326 2.41504 68.9098 2.41504 67.096ZM4.59153 67.096C4.59153 68.1683 4.89382 69.2884 6.36072 69.2884C7.82763 69.2884 8.14265 68.1683 8.14265 67.096C8.14265 65.8995 7.76399 64.7476 6.36072 64.7476C4.95746 64.7476 4.59153 65.9123 4.59153 67.096Z"
            fill="#6E61FF" />
        <path
            d="M10.8477 63.2008L11.9359 63.0735V62.9112L11.0068 62.0902C11.2422 60.7666 12.5214 60.041 13.9087 60.041C15.5347 60.041 16.5434 60.5438 17.4407 61.5365L15.9898 62.9748C15.722 62.6637 15.3905 62.4137 15.0178 62.2419C14.645 62.07 14.2396 61.9803 13.8292 61.9788C13.3869 61.9788 13.1037 62.1379 13.1037 62.4371C13.1037 62.6725 13.3105 62.8157 13.6733 62.8952C14.284 62.9866 14.9032 63.008 15.5188 62.9589V64.7408H14.2715V71.1844H12.0441V64.7472H10.8477V63.2008Z"
            fill="#6E61FF" />
    </g>
    <defs>
        <clipPath id="clip0_1_50349">
            <rect width="90" height="75" />
        </clipPath>
    </defs>
</svg>