<svg width="24" height="25" viewBox="0 0 24 25" fill="none" xmlns="http://www.w3.org/2000/svg">
<g clip-path="url(#clip0_2_481)">
<path d="M19.633 8.23142C19.646 8.40642 19.646 8.58042 19.646 8.75442C19.646 14.0794 15.593 20.2154 8.186 20.2154C5.904 20.2154 3.784 19.5544 2 18.4064C2.324 18.4434 2.636 18.4564 2.973 18.4564C4.78599 18.4608 6.54765 17.8546 7.974 16.7354C7.13342 16.7202 6.31858 16.4429 5.64324 15.9422C4.9679 15.4415 4.46578 14.7423 4.207 13.9424C4.456 13.9794 4.706 14.0044 4.968 14.0044C5.329 14.0044 5.692 13.9544 6.029 13.8674C5.11676 13.6833 4.29647 13.1888 3.70762 12.4681C3.11876 11.7475 2.79769 10.8451 2.799 9.91442V9.86442C3.336 10.1634 3.959 10.3504 4.619 10.3754C4.06609 10.008 3.61272 9.50945 3.29934 8.92421C2.98596 8.33898 2.82231 7.68528 2.823 7.02142C2.823 6.27342 3.022 5.58742 3.371 4.98942C4.38314 6.23444 5.6455 7.25298 7.07634 7.97908C8.50717 8.70518 10.0746 9.12264 11.677 9.20442C11.615 8.90442 11.577 8.59342 11.577 8.28142C11.5767 7.75238 11.6807 7.22848 11.8831 6.73966C12.0854 6.25085 12.3821 5.8067 12.7562 5.43261C13.1303 5.05852 13.5744 4.76183 14.0632 4.5595C14.5521 4.35717 15.076 4.25316 15.605 4.25342C16.765 4.25342 17.812 4.73942 18.548 5.52542C19.4498 5.35104 20.3145 5.02185 21.104 4.55242C20.8034 5.48324 20.1738 6.27253 19.333 6.77242C20.1328 6.6812 20.9144 6.47088 21.652 6.14842C21.1011 6.95152 20.4185 7.65577 19.633 8.23142Z" fill="#6E61FF"/>
</g>
<defs>
<clipPath id="clip0_2_481">
<rect width="24" height="24" fill="white" transform="translate(0 0.234375)"/>
</clipPath>
</defs>
</svg>
